<svg xmlns="http://www.w3.org/2000/svg" viewBox="0 0 600 750" width="600" height="750">
<defs>
<filter id="grain">
  <feTurbulence type="fractalNoise" baseFrequency="0.9" numOctaves="2" stitchTiles="stitch" result="n"/>
  <feColorMatrix in="n" type="matrix" values="0 0 0 0 0  0 0 0 0 0  0 0 0 0 0  0 0 0 0.05 0"/>
  <feComposite operator="over" in2="SourceGraphic"/>
</filter>

<linearGradient id="tone" x1="0" y1="0" x2="1" y2="1">
  <stop offset="0" stop-color="#111111"/><stop offset="1" stop-color="#3a3a3a"/>
</linearGradient>
<linearGradient id="bone" x1="0" y1="0" x2="0" y2="1">
  <stop offset="0" stop-color="#DDD9D2"/><stop offset="1" stop-color="#C9C9C6"/>
</linearGradient>
</defs>
<rect width="600" height="750" fill="#F7F7F5"/>
<g filter="url(#grain)">
<rect x="0" y="0" width="600" height="750" fill="#F7F7F5"/>
<line x1="40" y1="710" x2="560" y2="710" stroke="#C9C9C6" stroke-width="1"/>

<g transform="translate(300 380)">
<path d="M0 -230 L -104 -192 C -118 -110, -118 -10, -108 120 L -20 120 L -10 -40 L 0 -66 L 10 -40 L 20 120 L 108 120 C 118 -10, 118 -110, 104 -192 Z" fill="#111111"/>
<path d="M0 -230 L -58 -170 L -8 -44 L 0 -66 Z" fill="#F7F7F5" opacity="0.12"/>
<path d="M0 -230 L 58 -170 L 8 -44 L 0 -66 Z" fill="#F7F7F5" opacity="0.2"/>
<path d="M-104 -192 L -140 -60 L -110 -40 L -96 -150 Z" fill="#111111"/>
<path d="M104 -192 L 140 -60 L 110 -40 L 96 -150 Z" fill="#111111"/>
<circle cx="0" cy="20" r="4.5" fill="#F7F7F5" opacity="0.6"/>
<line x1="-70" y1="60" x2="-40" y2="60" stroke="#F7F7F5" stroke-width="2" opacity="0.3"/>
<line x1="40" y1="60" x2="70" y2="60" stroke="#F7F7F5" stroke-width="2" opacity="0.3"/>
</g></g>
</svg>