<svg xmlns="http://www.w3.org/2000/svg" viewBox="0 0 600 750" width="600" height="750">
<defs>
<filter id="grain">
  <feTurbulence type="fractalNoise" baseFrequency="0.9" numOctaves="2" stitchTiles="stitch" result="n"/>
  <feColorMatrix in="n" type="matrix" values="0 0 0 0 0  0 0 0 0 0  0 0 0 0 0  0 0 0 0.05 0"/>
  <feComposite operator="over" in2="SourceGraphic"/>
</filter>

<linearGradient id="tone" x1="0" y1="0" x2="1" y2="1">
  <stop offset="0" stop-color="#111111"/><stop offset="1" stop-color="#3a3a3a"/>
</linearGradient>
<linearGradient id="bone" x1="0" y1="0" x2="0" y2="1">
  <stop offset="0" stop-color="#DDD9D2"/><stop offset="1" stop-color="#C9C9C6"/>
</linearGradient>
</defs>
<rect width="600" height="750" fill="#F7F7F5"/>
<g filter="url(#grain)">
<rect x="0" y="0" width="600" height="750" fill="#F7F7F5"/>
<line x1="40" y1="710" x2="560" y2="710" stroke="#C9C9C6" stroke-width="1"/>

<g transform="translate(300 390)">
<path d="M0 -210 L -110 -170 C -126 -90, -124 10, -112 100 L 112 100 C 124 10, 126 -90, 110 -170 Z" fill="url(#bone)"/>
<path d="M-110 -170 C -146 -120, -152 -40, -140 30 L -112 22 C -120 -40, -118 -110, -102 -156 Z" fill="#C9C9C6"/>
<path d="M110 -170 C 146 -120, 152 -40, 140 30 L 112 22 C 120 -40, 118 -110, 102 -156 Z" fill="#C9C9C6"/>
<path d="M0 -210 C -30 -206, -44 -192, -46 -178 C -20 -168, 20 -168, 46 -178 C 44 -192, 30 -206, 0 -210 Z" fill="#C9C9C6"/>
<g stroke="#6F6F6F" stroke-width="1.3" opacity="0.35">
  <line x1="-116" y1="-130" x2="116" y2="-130"/><line x1="-120" y1="-85" x2="120" y2="-85"/>
  <line x1="-122" y1="-40" x2="122" y2="-40"/><line x1="-120" y1="5" x2="120" y2="5"/>
  <line x1="-116" y1="50" x2="116" y2="50"/><line x1="-113" y1="88" x2="113" y2="88"/>
</g>
</g></g>
</svg>