<svg xmlns="http://www.w3.org/2000/svg" viewBox="0 0 480 760" width="480" height="760">
<defs>
<filter id="grain">
  <feTurbulence type="fractalNoise" baseFrequency="0.9" numOctaves="2" stitchTiles="stitch" result="n"/>
  <feColorMatrix in="n" type="matrix" values="0 0 0 0 0  0 0 0 0 0  0 0 0 0 0  0 0 0 0.05 0"/>
  <feComposite operator="over" in2="SourceGraphic"/>
</filter>

<linearGradient id="tone" x1="0" y1="0" x2="1" y2="1">
  <stop offset="0" stop-color="#111111"/><stop offset="1" stop-color="#3a3a3a"/>
</linearGradient>
<linearGradient id="bone" x1="0" y1="0" x2="0" y2="1">
  <stop offset="0" stop-color="#DDD9D2"/><stop offset="1" stop-color="#C9C9C6"/>
</linearGradient>
</defs>

<g filter="url(#grain)">
<!-- floor shadow -->
<ellipse cx="240" cy="726" rx="120" ry="12" fill="#111111" opacity="0.08"/>
<!-- head -->
<circle cx="240" cy="86" r="34" fill="#111111"/>
<!-- neck -->
<rect x="230" y="116" width="20" height="26" fill="#111111"/>
<!-- arms (bare, drawn behind garments) -->
<path d="M164 190 C 148 260, 146 330, 154 402 L 172 400 C 166 332, 170 264, 184 200 Z" fill="#111111"/>
<path d="M316 190 C 332 260, 334 330, 326 402 L 308 400 C 314 332, 310 264, 296 200 Z" fill="#111111"/>
<!-- legs -->
<path d="M212 440 L 204 700 L 226 700 L 234 452 Z" fill="#111111"/>
<path d="M268 440 L 276 700 L 254 700 L 246 452 Z" fill="#111111"/>
<!-- shoes -->
<path d="M200 700 L 228 700 L 232 716 L 192 716 Z" fill="#111111"/>
<path d="M252 700 L 280 700 L 288 716 L 248 716 Z" fill="#111111"/>

<path d="M240 142 L 184 170 C 172 220, 170 280, 176 352 L 304 352 C 310 280, 308 220, 296 170 Z" fill="url(#bone)"/>
<path d="M184 170 C 176 210, 174 250, 176 296 L 192 296 C 188 250, 190 212, 198 178 Z" fill="#C9C9C6"/>
<path d="M296 170 C 304 210, 306 250, 304 296 L 288 296 C 292 250, 290 212, 282 178 Z" fill="#C9C9C6"/>
<g stroke="#6F6F6F" stroke-width="1.4" opacity="0.4">
  <line x1="186" y1="200" x2="298" y2="200"/><line x1="182" y1="240" x2="300" y2="240"/>
  <line x1="180" y1="280" x2="302" y2="280"/><line x1="178" y1="320" x2="303" y2="320"/>
</g>
<path d="M178 352 L 168 704 L 224 704 L 236 420 L 244 420 L 256 704 L 312 704 L 302 352 Z" fill="#111111"/>
<path d="M236 420 L 240 352 L 244 420 Z" fill="#F7F7F5" opacity="0.1"/>
</g>
</svg>