<svg xmlns="http://www.w3.org/2000/svg" viewBox="0 0 600 750" width="600" height="750">
<defs>
<filter id="grain">
  <feTurbulence type="fractalNoise" baseFrequency="0.9" numOctaves="2" stitchTiles="stitch" result="n"/>
  <feColorMatrix in="n" type="matrix" values="0 0 0 0 0  0 0 0 0 0  0 0 0 0 0  0 0 0 0.05 0"/>
  <feComposite operator="over" in2="SourceGraphic"/>
</filter>

<linearGradient id="tone" x1="0" y1="0" x2="1" y2="1">
  <stop offset="0" stop-color="#111111"/><stop offset="1" stop-color="#3a3a3a"/>
</linearGradient>
<linearGradient id="bone" x1="0" y1="0" x2="0" y2="1">
  <stop offset="0" stop-color="#DDD9D2"/><stop offset="1" stop-color="#C9C9C6"/>
</linearGradient>
</defs>
<rect width="600" height="750" fill="#F7F7F5"/>
<g filter="url(#grain)">
<rect x="0" y="0" width="600" height="750" fill="#F7F7F5"/>
<line x1="40" y1="710" x2="560" y2="710" stroke="#C9C9C6" stroke-width="1"/>

<g transform="translate(300 200)">
<path d="M-70 0 L 70 0 L 96 180 C 110 260, 104 330, 90 400 L -90 400 C -104 330, -110 260, -96 180 Z" fill="url(#tone)"/>
<rect x="-70" y="0" width="140" height="20" fill="#111111"/>
<path d="M-20 20 C -30 160, -34 280, -30 396" stroke="#F7F7F5" stroke-width="1.5" fill="none" opacity="0.25"/>
<path d="M30 20 C 38 160, 40 280, 36 396" stroke="#F7F7F5" stroke-width="1.5" fill="none" opacity="0.25"/>
<path d="M-70 8 L 70 8" stroke="#F7F7F5" stroke-width="1.2" opacity="0.3"/>
</g></g>
</svg>