<svg xmlns="http://www.w3.org/2000/svg" viewBox="0 0 600 750" width="600" height="750">
<defs>
<filter id="grain">
  <feTurbulence type="fractalNoise" baseFrequency="0.9" numOctaves="2" stitchTiles="stitch" result="n"/>
  <feColorMatrix in="n" type="matrix" values="0 0 0 0 0  0 0 0 0 0  0 0 0 0 0  0 0 0 0.05 0"/>
  <feComposite operator="over" in2="SourceGraphic"/>
</filter>

<linearGradient id="tone" x1="0" y1="0" x2="1" y2="1">
  <stop offset="0" stop-color="#111111"/><stop offset="1" stop-color="#3a3a3a"/>
</linearGradient>
<linearGradient id="bone" x1="0" y1="0" x2="0" y2="1">
  <stop offset="0" stop-color="#DDD9D2"/><stop offset="1" stop-color="#C9C9C6"/>
</linearGradient>
</defs>
<rect width="600" height="750" fill="#F7F7F5"/>
<g filter="url(#grain)">
<rect x="0" y="0" width="600" height="750" fill="#F7F7F5"/>
<line x1="40" y1="710" x2="560" y2="710" stroke="#C9C9C6" stroke-width="1"/>

<g transform="translate(300 400)">
<path d="M0 -230 L -14 -206 L -78 -150 C -90 -70, -86 20, -74 90 L 74 90 C 86 20, 90 -70, 78 -150 L 14 -206 Z" fill="url(#bone)"/>
<path d="M0 -230 L -14 -206 L 0 -186 L 14 -206 Z" fill="#6F6F6F" opacity="0.4"/>
<path d="M-78 -150 C -40 -120, 40 -120, 78 -150" stroke="#6F6F6F" stroke-width="1.4" fill="none" opacity="0.4"/>
<line x1="0" y1="-186" x2="0" y2="80" stroke="#6F6F6F" stroke-width="1.2" opacity="0.3"/>
</g></g>
</svg>