<svg xmlns="http://www.w3.org/2000/svg" viewBox="0 0 600 750" width="600" height="750">
<defs>
<filter id="grain">
  <feTurbulence type="fractalNoise" baseFrequency="0.9" numOctaves="2" stitchTiles="stitch" result="n"/>
  <feColorMatrix in="n" type="matrix" values="0 0 0 0 0  0 0 0 0 0  0 0 0 0 0  0 0 0 0.05 0"/>
  <feComposite operator="over" in2="SourceGraphic"/>
</filter>

<linearGradient id="tone" x1="0" y1="0" x2="1" y2="1">
  <stop offset="0" stop-color="#111111"/><stop offset="1" stop-color="#3a3a3a"/>
</linearGradient>
<linearGradient id="bone" x1="0" y1="0" x2="0" y2="1">
  <stop offset="0" stop-color="#DDD9D2"/><stop offset="1" stop-color="#C9C9C6"/>
</linearGradient>
</defs>
<rect width="600" height="750" fill="#F7F7F5"/>
<g filter="url(#grain)">
<rect x="0" y="0" width="600" height="750" fill="#F7F7F5"/>
<line x1="40" y1="710" x2="560" y2="710" stroke="#C9C9C6" stroke-width="1"/>

<g transform="translate(300 130)">
<path d="M-92 0 L 92 0 L 104 60 L 84 500 L 16 500 L 4 120 L -4 120 L -16 500 L -84 500 L -104 60 Z" fill="#111111"/>
<rect x="-92" y="0" width="184" height="26" fill="#111111"/>
<line x1="-92" y1="26" x2="92" y2="26" stroke="#F7F7F5" stroke-width="1.5" opacity="0.3"/>
<path d="M-50 60 L -44 480" stroke="#F7F7F5" stroke-width="1.5" opacity="0.2"/>
<path d="M50 60 L 44 480" stroke="#F7F7F5" stroke-width="1.5" opacity="0.2"/>
<rect x="-8" y="4" width="16" height="18" fill="#F7F7F5" opacity="0.25"/>
</g></g>
</svg>